<?xml version="1.0" encoding="utf-8"?>
<svg width="11501px" height="3001px" viewBox="0 0 11501 3001" version="1.1" xmlns:xlink="http://www.w3.org/1999/xlink" xmlns="http://www.w3.org/2000/svg">
  <defs>
    <path d="M11501 0L11501 0L11501 3001L0 3001L0 0L11501 0Z" id="path_1" />
    <clipPath id="clip_1">
      <use xlink:href="#path_1" clip-rule="evenodd" fill-rule="evenodd" />
    </clipPath>
  </defs>
  <g id="wave_top_2" clip-path="url(#clip_1)">
    <path d="M11501 0L11501 0L11501 3001L0 3001L0 0L11501 0Z" id="wave_top_2" fill="none" stroke="none" />
    <g id="Page-1" transform="translate(-4017.9822 -6608.236)">
      <path d="M15653.8 8001.53C14563.5 8733.5 12879.4 7304.55 10948.3 7385.72C9061.03 7465.05 7526.42 8444.98 5588.51 8626.76C3241.99 8846.88 2383.1 8323.21 1184.53 7039.86C385.489 6184.3 1178.92 3999.75 3564.84 486.209C11026.7 976.566 15425.7 1970.4 16761.7 3467.72C17537.2 4336.94 17028.5 4928.08 16992.3 5568.08C16934.9 6581.76 16562 7391.86 15653.8 8001.53L15653.8 8001.53Z" id="Path" fill="#6259E0" fill-opacity="0.078431375" fill-rule="evenodd" stroke="none" />
      <path d="M15662 7743.73C14513.7 8450.12 12853.6 7021.56 10922.5 7102.73C9730.19 7152.84 8948.52 7401.94 7777.27 7827.5C7094.61 8075.54 6111.76 8402.11 5100.56 8398.84C3539.76 8393.61 2804.61 8055.56 1606.04 6772.21C806.999 5916.65 1451.33 3726.98 3539.04 203.218C11000.9 693.575 15399.9 1687.41 16735.9 3184.73C17511.4 4053.95 17178.1 4745.97 17141.8 5385.97C17084.5 6399.65 16641.6 7141.06 15662 7743.73L15662 7743.73Z" id="Path#1" fill="#4A3798" fill-rule="evenodd" stroke="none" />
      <path d="M15713.4 7810.51C14527.2 8499.73 12341 6850.48 10432.5 7020.34C9549.16 7098.96 8962.28 7243.6 8152.32 7502.44C7342.36 7761.28 7132.97 7863.81 6299.66 8030.67C5466.34 8197.54 4457.94 8176.74 3743.33 7942.93C2660.99 7588.81 1452.63 6247.59 254.062 4964.25C-544.983 4108.68 540.766 2453.93 3511.31 0C10973.2 490.357 15372.1 1484.19 16708.1 2981.51C17483.7 3850.73 17150.3 4542.75 17114.1 5182.75C17056.7 6196.43 16691.2 7242.39 15713.4 7810.51L15713.4 7810.51Z" id="Path#2" fill="#383B62" fill-rule="evenodd" stroke="none" />
    </g>
  </g>
</svg>