<?xml version="1.0" encoding="utf-8"?>
<svg width="11501px" height="2663px" viewBox="0 0 11501 2663" version="1.1" xmlns:xlink="http://www.w3.org/1999/xlink" xmlns="http://www.w3.org/2000/svg">
  <defs>
    <path d="M11501 0L11501 0L11501 2663L0 2663L0 0L11501 0Z" id="path_1" />
    <clipPath id="clip_1">
      <use xlink:href="#path_1" clip-rule="evenodd" fill-rule="evenodd" />
    </clipPath>
  </defs>
  <g id="wave_bottom_2" clip-path="url(#clip_1)">
    <path d="M11501 0L11501 0L11501 2663L0 2663L0 0L11501 0Z" id="wave_bottom_2" fill="none" stroke="none" />
    <g id="Page-1" transform="translate(-4301.1724 -514.6577)">
      <path d="M21038 477.545C20371 270.837 20178.5 1741.66 18865.3 1968.72C17693.5 2171.35 16956.2 1406.05 15886.5 1069.43C15146.5 836.547 13911.2 713.162 12647.2 862.428C11675.2 977.221 10683.8 1306.74 9901.63 1544.38C7961.31 2133.83 6522.72 2066.4 5662.41 1968.72C4206.25 1803.38 3922.91 1593.38 3276.21 1066.13C2826.18 699.227 1880.41 -94.3769 1579.24 9.24872C-706.4 795.689 -353.507 2444.67 2637.92 4956.21L17098.5 4956.21C21766.9 2603.34 23080.1 1110.45 21038 477.545L21038 477.545Z" id="Path-3" fill="#6259E0" fill-opacity="0.078431375" fill-rule="evenodd" stroke="none" />
      <path d="M20983.5 792.766C20316.5 586.058 20123.9 2056.88 18810.8 2283.94C17639 2486.57 15909.5 1712.49 14939.6 1530.98C13617.1 1283.46 11596.2 1353.54 9796.87 1900.17C7856.56 2489.63 6468.2 2381.62 5607.89 2283.94C3138.4 2003.55 2258.67 71.9337 1524.72 324.47C-760.916 1110.91 -408.022 2759.9 2583.4 5271.43L17044 5271.43C21712.4 2918.56 23025.5 1425.68 20983.5 792.766L20983.5 792.766Z" id="Path-3#1" fill="#4A3798" fill-rule="evenodd" stroke="none" />
      <path d="M20943.7 1018.29C20276.8 811.579 20084.2 2282.4 18771 2509.46C17599.2 2712.09 15477.2 2076.21 14507.4 1894.7C13184.8 1647.19 11556.5 1579.06 9757.11 2125.69C7816.79 2715.15 6428.44 2607.14 5568.13 2509.46C3098.64 2229.07 2218.91 297.455 1484.96 549.991C-800.681 1336.43 -447.788 2985.42 2543.64 5496.95L17004.3 5496.95C21672.6 3144.08 22985.8 1651.2 20943.7 1018.29L20943.7 1018.29Z" id="Path-3#2" fill="#383B62" fill-rule="evenodd" stroke="none" />
    </g>
  </g>
</svg>